# AST/ASF file generated using VICON BodyLanguage
# -----------------------------------------------
:version 1.10
:name VICON
:units
  mass 1.0
  length 0.45
  angle deg
:documentation
   .ast/.asf automatically generated from VICON data using
   VICON BodyBuilder and BodyLanguage model FoxedUp or BRILLIANT.MOD
:root
   order TX TY TZ RX RY RZ
   axis XYZ
   position 0 0 0  
   orientation 0 0 0 
:bonedata
  begin
     id 1 
     name lhipjoint
     direction 0.624716 -0.669793 0.401383 
     length 2.38238 
     axis 0 0 0  XYZ
  end
  begin
     id 2 
     name lfemur
     direction 0.34202 -0.939693 0  
     length 6.4574  
     axis 0 0 20  XYZ
    dof rx ry rz
    limits (-160.0 20.0)
           (-70.0 70.0)
           (-60.0 70.0)
  end
  begin
     id 3 
     name ltibia
     direction 0.34202 -0.939693 0   
     length 7.68739   
     axis 0 0 20   XYZ
    dof rx
    limits (-10.0 170.0)
  end
  begin
     id 4 
     name lfoot
     direction 0.0681309 -0.187188 0.979959   
     length 2.46615   
     axis -90 7.62852e-016 20   XYZ
    dof rx rz
    limits (-45.0 90.0)
           (-70.0 20.0)
  end
  begin
     id 5 
     name ltoes
     direction 1.53566e-011 -4.21819e-011 1   
     length 1.2376   
     axis -90 7.62852e-016 20   XYZ
    dof rx
    limits (-90.0 20.0)
  end
  begin
     id 6 
     name rhipjoint
     direction -0.644473 -0.655875 0.393043   
     length 2.43293  
     axis 0 0 0  XYZ 
  end
  begin
     id 7 
     name rfemur
     direction -0.34202 -0.939693 0   
     length 6.7025   
     axis 0 0 -20   XYZ
    dof rx ry rz
    limits (-160.0 20.0)
           (-70.0 70.0)
           (-70.0 60.0)
  end
  begin
     id 8 
     name rtibia
     direction -0.34202 -0.939693 0   
     length 7.80547   
     axis 0 0 -20   XYZ
    dof rx
    limits (-10.0 170.0)
 end
 begin
     id 9 
     name rfoot
     direction -0.0756734 -0.207911 0.975216   
     length 2.40315  
     axis -90 -7.62852e-016 -20   XYZ
    dof rx rz
    limits (-45.0 90.0)
           (-20.0 70.0)
  end
  begin
     id 10 
     name rtoes
     direction -1.5353e-011 -4.21879e-011 1   
     length 1.20477   
     axis -90 -7.62852e-016 -20   XYZ
    dof rx
    limits (-90.0 20.0)
  end
  begin
     id 11 
     name lowerback
     direction 0.0160353 0.987463 -0.157037   
     length 2.18572   
     axis 0 0 0   XYZ
    dof rx ry rz
    limits (-20.0 45.0)
           (-30.0 30.0)
           (-30.0 30.0)
  end
  begin
     id 12 
     name upperback
     direction -0.00499661 0.999756 0.0215076   
     length 2.18016   
     axis 0 0 0   XYZ
    dof rx ry rz
    limits (-20.0 45.0)
           (-30.0 30.0)
           (-30.0 30.0)
  end
  begin
     id 13 
     name thorax
     direction -0.00921346 0.995333 0.0960619   
     length 2.24923   
     axis 0 0 0   XYZ
    dof rx ry rz
    limits (-20.0 45.0)
           (-30.0 30.0)
           (-30.0 30.0)
  end
  begin
     id 14 
     name lowerneck
     direction 0.0274184 0.991181 0.12965   
     length 1.70911   
     axis 0 0 0   XYZ
    dof rx ry rz
    limits (-20.0 45.0)
           (-30.0 30.0)
           (-30.0 30.0)
  end
  begin
     id 15 
     name upperneck
     direction 0.0015627 0.999959 -0.00893559   
     length 1.69312   
     axis 0 0 0   XYZ
    dof rx ry rz
    limits (-20.0 45.0)
           (-30.0 30.0)
           (-30.0 30.0)
  end
  begin
     id 16
     name head
     direction -0.00230242 0.999856 -0.0168327  
     length 1.80241  
     axis 0 0 0   XYZ
    dof rx ry rz
    limits (-20.0 45.0)
           (-30.0 30.0)
           (-30.0 30.0)
  end
  begin
     id 17 
     name lclavicle
     direction 0.955523 0.290741 -0.0494489  
     length 3.84275  
     axis 0 0 0   XYZ
    dof ry rz
    limits (-20.0 10.0)
           (0.0 20.0)
  end
  begin
     id 18 
     name lhumerus
     direction 1 -4.48967e-011 -3.18382e-028   
     length 5.17714   
     axis 180 -30 -90   XYZ
    dof rx ry rz
    limits (-60.0 90.0)
           (-90.0 90.0)
           (-90.0 90.0)
  end
  begin
     id 19
     name lradius
     direction 1 -4.48968e-011 -2.22911e-027   
     length 3.43679   
     axis 180 -30 -90   XYZ
    dof rx
    limits (-10.0 170.0)
  end
  begin
     id 20
     name lwrist
     direction 1 -4.48951e-011 -6.32245e-027   
     length 1.7184   
     axis 3.57107e-015 90 90   XYZ
    dof ry
    limits (-180.0 0.0)
 end
  begin
     id 21 
     name lhand
     direction 1 -4.48924e-011 -1.26431e-026   
     length 0.573117   
     axis 8.06912e-015 90 90   XYZ
    dof rx rz
    limits (-90.0 90.0)
           (-45.0 45.0)
  end
  begin
     id 22 
     name lfingers
     direction 1 -4.49001e-011 -2.52965e-026   
     length 0.462062   
     axis 1.61381e-014 90 90   XYZ
    dof rx
    limits (0.0 90.0)
  end
  begin
     id 23
     name lthumb
     direction 0.707107 -6.35008e-011 0.707107   
     length 0.663431   
     axis -90 45 -1.62303e-014   XYZ
    dof rx rz
    limits (-45.0 45.0)
           (-45.0 45.0)
  end
  begin
     id 24 
     name rclavicle
     direction -0.963917 0.256881 -0.0698287   
     length 3.73057  
     axis 0 0 0   XYZ 
    dof ry rz
    limits (-10.0 20.0)
           (-20.0 0.0)
  end
  begin
     id 25 
     name rhumerus
     direction -1 -4.48962e-011 -2.73982e-027  
     length 5.23908   
     axis 180 30 90   XYZ
    dof rx ry rz
    limits (-90.0 60.0)
           (-90.0 90.0)
           (-90.0 90.0)
  end
  begin
     id 26 
     name rradius
     direction -1 -4.48968e-011 -4.33218e-027   
     length 3.46485   
     axis 180 30 90   XYZ
    dof rx
    limits (-10.0 170.0)
  end
  begin
     id 27 
     name rwrist
     direction -1 -4.48989e-011 -6.32372e-027   
     length 1.73243   
     axis 3.57107e-015 -90 -90   XYZ
    dof ry
    limits (-180.0 0.0)
  end
  begin
     id 28
     name rhand
     direction -1 -4.48948e-011 -1.26448e-026   
     length 0.608752   
     axis 8.06912e-015 -90 -90   XYZ
    dof rx rz
    limits (-90.0 90.0)
           (-45.0 45.0)
  end
  begin
     id 29
     name rfingers
     direction -1 -4.48962e-011 -2.52913e-026   
     length 0.490792   
     axis 1.61381e-014 -90 -90   XYZ
    dof rx
    limits (0.0 90.0)
  end
  begin
     id 30
     name rthumb
     direction -0.707107 -6.34878e-011 0.707107   
     length 0.704682   
     axis -90 -45 1.62303e-014   XYZ
    dof rx rz
    limits (-45.0 45.0)
           (-45.0 45.0)
  end
:hierarchy
  begin
    root lhipjoint rhipjoint lowerback
    lhipjoint lfemur
    lfemur ltibia
    ltibia lfoot
    lfoot ltoes
    rhipjoint rfemur
    rfemur rtibia
    rtibia rfoot
    rfoot rtoes
    lowerback upperback
    upperback thorax
    thorax lowerneck lclavicle rclavicle
    lowerneck upperneck
    upperneck head
    lclavicle lhumerus
    lhumerus lradius
    lradius lwrist
    lwrist lhand lthumb
    lhand lfingers
    rclavicle rhumerus
    rhumerus rradius
    rradius rwrist
    rwrist rhand rthumb
    rhand rfingers
  end

#!OML:ASF G:\JayActor3\Patient Classification 1\Patient 1\Session 6\male.ASF
:FULLY-SPECIFIED
:DEGREES
93
root 45.8103 15.9023 13.4911 175.809 -55.2807 -175.875
lowerback -2.11405 -0.228739 0.746679
upperback 3.93283 -0.427918 0.413002
thorax 5.24743 -0.220124 -0.0220144
lowerneck -9.95946 0.674935 1.12787
upperneck 24.5164 0.378335 -1.87973
head 9.35033 -0.232083 -0.848712
rclavicle 7.87684e-014 -5.36719e-015
rhumerus -29.0846 -20.4864 -79.2486
rradius 26.1368
rwrist 3.86337
rhand -19.4119 -5.88481
rfingers 7.12502
rthumb 6.90755 -35.7521
lclavicle 7.87684e-014 -5.36719e-015
lhumerus -24.7773 18.6138 80.6393
lradius 20.9012
lwrist 20.9013
lhand -15.4316 7.8711
lfingers 7.12502
lthumb 10.7485 37.5761
rfemur -12.0861 2.18615 19.1391
rtibia 37.5638
rfoot -25.2335 -15.8843
rtoes -3.58544
lfemur -2.43125 4.89356 -18.4438
ltibia 26.4767
lfoot -25.0458 18.6916
ltoes 2.50309
94
root 45.8095 15.9026 13.4896 175.836 -55.2865 -175.885
lowerback -2.12588 -0.227219 0.737626
upperback 3.93015 -0.425309 0.412175
thorax 5.25144 -0.219073 -0.0176765
lowerneck -9.94884 0.674669 1.12782
upperneck 24.5085 0.376828 -1.8742
head 9.34551 -0.232033 -0.846849
rclavicle -9.37518e-014 1.0138e-014
rhumerus -29.0841 -20.4897 -79.246
rradius 26.1246
rwrist 3.86325
rhand -19.4154 -5.87942
rfingers 7.12502
rthumb 6.90413 -35.7468
lclavicle -9.37518e-014 1.0138e-014
lhumerus -24.7696 18.5865 80.6366
lradius 20.8958
lwrist 20.9066
lhand -15.4489 7.83326
lfingers 7.12502
lthumb 10.7318 37.5391
rfemur -12.1017 2.18284 19.1349
rtibia 37.5686
rfoot -25.2431 -15.8764
rtoes -3.55725
lfemur -2.44652 4.91953 -18.4458
ltibia 26.4716
lfoot -25.0067 18.7069
ltoes 2.36398
95
root 45.8088 15.9029 13.4882 175.865 -55.2936 -175.897
lowerback -2.13538 -0.22772 0.726404
upperback 3.92609 -0.425293 0.41261
thorax 5.25269 -0.219424 -0.0109715
lowerneck -9.93327 0.678042 1.12063
upperneck 24.4943 0.380946 -1.86381
head 9.33758 -0.22935 -0.841403
rclavicle 9.57397e-014 -2.52457e-014
rhumerus -29.0846 -20.482 -79.244
rradius 26.1146
rwrist 3.85606
rhand -19.423 -5.8776
rfingers 7.12502
rthumb 6.89679 -35.7453
lclavicle 9.57397e-014 -2.52457e-014
lhumerus -24.7663 18.5655 80.6339
lradius 20.8939
lwrist 20.9116
lhand -15.4728 7.78596
lfingers 7.12502
lthumb 10.7087 37.493
rfemur -12.118 2.17694 19.1291
rtibia 37.5725
rfoot -25.251 -15.8699
rtoes -3.54343
lfemur -2.46269 4.94278 -18.4481
ltibia 26.468
lfoot -24.9813 18.7059
ltoes 2.27765
96
root 45.8081 15.9034 13.4868 175.897 -55.2986 -175.912
lowerback -2.14283 -0.22734 0.713098
upperback 3.92159 -0.423956 0.412823
thorax 5.25232 -0.219203 -0.00322938
lowerneck -9.91618 0.684144 1.11227
upperneck 24.478 0.389065 -1.85263
head 9.32873 -0.224774 -0.835027
rclavicle -6.49777e-014 6.55989e-015
rhumerus -29.0857 -20.4723 -79.2421
rradius 26.1077
rwrist 3.84508
rhand -19.4301 -5.88245
rfingers 7.12502
rthumb 6.88997 -35.7503
lclavicle -6.49777e-014 6.55989e-015
lhumerus -24.7639 18.5519 80.6303
lradius 20.8924
lwrist 20.9092
lhand -15.4928 7.75475
lfingers 7.12502
lthumb 10.6894 37.4628
rfemur -12.1344 2.17153 19.1208
rtibia 37.5755
rfoot -25.2552 -15.8654
rtoes -3.54073
lfemur -2.47764 4.97506 -18.4523
ltibia 26.4648
lfoot -24.9484 18.7073
ltoes 2.16301
97
root 45.8074 15.9037 13.4854 175.927 -55.3035 -175.928
lowerback -2.14681 -0.226967 0.701233
upperback 3.91698 -0.422633 0.412099
thorax 5.24983 -0.218924 0.00275418
lowerneck -9.90247 0.693367 1.10562
upperneck 24.4608 0.401389 -1.84099
head 9.32026 -0.217935 -0.828317
rclavicle -2.54941e-014 9.54166e-015
rhumerus -29.0888 -20.4618 -79.2422
rradius 26.1051
rwrist 3.83162
rhand -19.4341 -5.88896
rfingers 7.12502
rthumb 6.88608 -35.757
lclavicle -2.54941e-014 9.54166e-015
lhumerus -24.7641 18.5408 80.625
lradius 20.8945
lwrist 20.9025
lhand -15.5066 7.73586
lfingers 7.12502
lthumb 10.6761 37.4446
rfemur -12.1502 2.16568 19.1122
rtibia 37.5794
rfoot -25.2564 -15.8662
rtoes -3.55868
lfemur -2.48904 4.99049 -18.4581
ltibia 26.4584
lfoot -24.9342 18.7015
ltoes 2.1231
98
root 45.8067 15.9041 13.4841 175.96 -55.3103 -175.948
lowerback -2.14732 -0.226851 0.689604
upperback 3.91205 -0.421496 0.408614
thorax 5.24498 -0.218673 0.00575576
lowerneck -9.89778 0.705318 1.10943
upperneck 24.4455 0.417372 -1.8359
head 9.31429 -0.209057 -0.825268
rclavicle 1.91579e-014 3.37934e-015
rhumerus -29.0923 -20.4586 -79.2437
rradius 26.1032
rwrist 3.82441
rhand -19.434 -5.89014
rfingers 7.12502
rthumb 6.88621 -35.7581
lclavicle 1.91579e-014 3.37934e-015
lhumerus -24.7638 18.5279 80.6173
lradius 20.8977
lwrist 20.8954
lhand -15.5191 7.71845
lfingers 7.12502
lthumb 10.664 37.4278
rfemur -12.1657 2.1599 19.101
rtibia 37.5846
rfoot -25.2609 -15.8661
rtoes -3.57213
lfemur -2.49711 4.99696 -18.4666
ltibia 26.448
lfoot -24.9321 18.6844
ltoes 2.13831
99
root 45.806 15.9043 13.4827 175.993 -55.3173 -175.969
lowerback -2.14641 -0.226473 0.676598
upperback 3.9083 -0.420002 0.405351
thorax 5.24058 -0.218325 0.0097862
lowerneck -9.89622 0.717587 1.11469
upperneck 24.4264 0.434519 -1.83306
head 9.3076 -0.199557 -0.823064
rclavicle 8.18744e-014 -1.11319e-014
rhumerus -29.0931 -20.4567 -79.2452
rradius 26.1013
rwrist 3.81603
rhand -19.4358 -5.8815
rfingers 7.12502
rthumb 6.88448 -35.7496
lclavicle 8.18744e-014 -1.11319e-014
lhumerus -24.7617 18.5113 80.6124
lradius 20.9034
lwrist 20.8894
lhand -15.5232 7.72619
lfingers 7.12502
lthumb 10.6601 37.4358
rfemur -12.1802 2.15606 19.0889
rtibia 37.5918
rfoot -25.2694 -15.8659
rtoes -3.58559
lfemur -2.50218 4.9897 -18.4775
ltibia 26.4336
lfoot -24.9406 18.6673
ltoes 2.19964
100
root 45.8053 15.9043 13.4814 176.024 -55.3257 -175.99
lowerback -2.1426 -0.226446 0.664265
upperback 3.90487 -0.418972 0.401183
thorax 5.23485 -0.218176 0.0124852
lowerneck -9.89901 0.730551 1.12398
upperneck 24.4059 0.452709 -1.83244
head 9.30126 -0.189318 -0.822173
rclavicle -1.1932e-013 2.24627e-014
rhumerus -29.091 -20.4641 -79.2457
rradius 26.0945
rwrist 3.81703
rhand -19.4401 -5.86338
rfingers 7.12502
rthumb 6.88033 -35.7316
lclavicle -1.1932e-013 2.24627e-014
lhumerus -24.7589 18.4857 80.6092
lradius 20.9111
lwrist 20.8911
lhand -15.5314 7.73491
lfingers 7.12502
lthumb 10.6522 37.4449
rfemur -12.1936 2.1506 19.0762
rtibia 37.601
rfoot -25.2798 -15.8648
rtoes -3.59468
lfemur -2.50414 4.96666 -18.4901
ltibia 26.4159
lfoot -24.9641 18.6446
ltoes 2.31902
101
root 45.8045 15.9043 13.48 176.056 -55.3335 -176.005
lowerback -2.14392 -0.226298 0.655116
upperback 3.9012 -0.418031 0.398747
thorax 5.23179 -0.217958 0.0151619
lowerneck -9.91097 0.74595 1.1378
upperneck 24.3879 0.474918 -1.83695
head 9.29764 -0.177287 -0.823408
rclavicle 1.49337e-014 -8.54774e-015
rhumerus -29.0844 -20.4755 -79.2442
rradius 26.0834
rwrist 3.82367
rhand -19.4479 -5.84171
rfingers 7.12502
rthumb 6.87284 -35.7101
lclavicle 1.49337e-014 -8.54774e-015
lhumerus -24.7543 18.4575 80.609
lradius 20.9224
lwrist 20.8957
lhand -15.5414 7.74189
lfingers 7.12502
lthumb 10.6426 37.4524
rfemur -12.213 2.14503 19.0672
rtibia 37.6116
rfoot -25.2911 -15.8638
rtoes -3.60374
lfemur -2.51107 4.94094 -18.4992
ltibia 26.3965
lfoot -24.9906 18.6214
ltoes 2.44918
102
root 45.8037 15.9042 13.4786 176.086 -55.3403 -176.021
lowerback -2.14511 -0.224961 0.644082
upperback 3.89945 -0.415543 0.397258
thorax 5.2307 -0.217094 0.0199689
lowerneck -9.92036 0.760667 1.15035
upperneck 24.3637 0.496646 -1.84092
head 9.29138 -0.165353 -0.82421
rclavicle 1.39149e-015 1.78906e-015
rhumerus -29.0736 -20.4978 -79.2376
rradius 26.0663
rwrist 3.84273
rhand -19.4547 -5.81012
rfingers 7.12502
rthumb 6.86626 -35.6788
lclavicle 1.39149e-015 1.78906e-015
lhumerus -24.7429 18.4278 80.6131
lradius 20.9301
lwrist 20.9023
lhand -15.5515 7.75544
lfingers 7.12502
lthumb 10.6328 37.4664
rfemur -12.2307 2.13998 19.0576
rtibia 37.6233
rfoot -25.3019 -15.8593
rtoes -3.60153
lfemur -2.51463 4.91309 -18.5094
ltibia 26.3764
lfoot -25.0217 18.5981
ltoes 2.58547
103
root 45.8028 15.9041 13.4772 176.117 -55.3509 -176.039
lowerback -2.14675 -0.224977 0.631415
upperback 3.89814 -0.414784 0.395353
thorax 5.23032 -0.217144 0.0251423
lowerneck -9.9195 0.775346 1.15945
upperneck 24.3294 0.518251 -1.8405
head 9.2796 -0.153122 -0.822811
rclavicle -3.16068e-014 2.98177e-015
rhumerus -29.0631 -20.5203 -79.2303
rradius 26.0485
rwrist 3.8664
rhand -19.4547 -5.77934
rfingers 7.12502
rthumb 6.86622 -35.648
lclavicle -3.16068e-014 2.98177e-015
lhumerus -24.7294 18.401 80.6167
lradius 20.9367
lwrist 20.9072
lhand -15.561 7.76284
lfingers 7.12502
lthumb 10.6236 37.4743
rfemur -12.2471 2.1341 19.0476
rtibia 37.6352
rfoot -25.3157 -15.857
rtoes -3.60158
lfemur -2.5178 4.88839 -18.5195
ltibia 26.3576
lfoot -25.0541 18.5669
ltoes 2.72479
104
root 45.802 15.904 13.4757 176.147 -55.3633 -176.057
lowerback -2.1475 -0.224905 0.616896
upperback 3.89773 -0.413844 0.393246
thorax 5.23039 -0.217188 0.0311587
lowerneck -9.91203 0.790851 1.16796
upperneck 24.292 0.540827 -1.839
head 9.26547 -0.140357 -0.820803
rclavicle 9.26834e-015 1.25234e-014
rhumerus -29.0538 -20.5378 -79.2238
rradius 26.0354
rwrist 3.8867
rhand -19.448 -5.76496
rfingers 7.12502
rthumb 6.87268 -35.6334
lclavicle 9.26834e-015 1.25234e-014
lhumerus -24.7108 18.3779 80.6204
lradius 20.9354
lwrist 20.9109
lhand -15.5688 7.76323
lfingers 7.12502
lthumb 10.6161 37.4751
rfemur -12.2599 2.12911 19.0372
rtibia 37.6472
rfoot -25.3321 -15.8545
rtoes -3.59665
lfemur -2.5181 4.86854 -18.5295
ltibia 26.34
lfoot -25.0829 18.534
ltoes 2.85205
105
root 45.801 15.9038 13.4741 176.176 -55.3767 -176.079
lowerback -2.14964 -0.224322 0.600798
upperback 3.90038 -0.412254 0.390612
thorax 5.23448 -0.216988 0.0375377
lowerneck -9.89351 0.806462 1.17207
upperneck 24.2439 0.563457 -1.83216
head 9.24552 -0.12718 -0.816093
rclavicle -5.81694e-014 7.95139e-015
rhumerus -29.0429 -20.5454 -79.222
rradius 26.03
rwrist 3.89693
rhand -19.4354 -5.76118
rfingers 7.12502
rthumb 6.88488 -35.6292
lclavicle -5.81694e-014 7.95139e-015
lhumerus -24.6855 18.3595 80.6248
lradius 20.9279
lwrist 20.9104
lhand -15.5719 7.76529
lfingers 7.12502
lthumb 10.6131 37.4773
rfemur -12.2677 2.12563 19.0253
rtibia 37.6583
rfoot -25.3497 -15.8536
rtoes -3.59325
lfemur -2.51626 4.86013 -18.5406
ltibia 26.3252
lfoot -25.0922 18.5153
ltoes 2.90407
106
root 45.8 15.9036 13.4724 176.201 -55.3924 -176.098
lowerback -2.15217 -0.224392 0.585475
upperback 3.90391 -0.411634 0.38836
thorax 5.23969 -0.217258 0.043808
lowerneck -9.86952 0.822965 1.17502
upperneck 24.1921 0.5871 -1.82321
head 9.22326 -0.113358 -0.810328
rclavicle 3.76448e-014 -4.37326e-015
rhumerus -29.032 -20.5388 -79.2263
rradius 26.0342
rwrist 3.89645
rhand -19.4376 -5.77809
rfingers 7.12502
rthumb 6.88273 -35.6462
lclavicle 3.76448e-014 -4.37326e-015
lhumerus -24.6559 18.3452 80.6288
lradius 20.9133
lwrist 20.9093
lhand -15.5713 7.74638
lfingers 7.12502
lthumb 10.6137 37.4583
rfemur -12.2737 2.12384 19.0157
rtibia 37.6689
rfoot -25.3704 -15.8531
rtoes -3.57546
lfemur -2.51493 4.85002 -18.5495
ltibia 26.3124
lfoot -25.1007 18.4963
ltoes 2.9562
